#!OML:ASF \\sashay\E\Suitcase\Project 1\Capture day 1\Session 1\Male1.ASF
:FULLY-SPECIFIED
:DEGREES
250
root 0.401814 17.5362 -38.3498 14.0992 -12.8568 5.92664
lowerback 37.8854 -0.64762 9.96383
upperback 15.5141 3.25208 17.2125
thorax -2.26061 1.04049 12.2964
lowerneck -9.16465 -9.58837 -6.60103
upperneck 7.73704 -11.8964 -1.80297
head 4.53529 -6.16269 -0.301106
rclavicle 3.18055e-015 -4.37326e-014
rhumerus 24.9182 -3.98244 -47.6796
rradius 19.1646
rwrist -5.13789
rhand -1.1242 13.6708
rfingers 7.12502
rthumb 24.5132 -14.7803
lclavicle 3.18055e-015 -4.37326e-014
lhumerus -28.4207 -10.3467 101.889
lradius 60.8133
lwrist 12.3311
lhand -4.33916 38.4661
lfingers 7.12502
lthumb 21.4282 67.301
rfemur -37.3234 3.29055 12.1286
rtibia 35.1357
rfoot -12.1704 1.23349
rtoes 17.4606
lfemur -27.7679 0.80132 -21.1948
ltibia 26.1223
lfoot -11.3365 11.8522
ltoes -0.361601
251
root 0.395639 17.535 -38.3344 13.9323 -12.9231 5.91078
lowerback 37.7379 -0.487894 9.94688
upperback 15.5389 3.41213 17.2585
thorax -2.21694 1.12064 12.2953
lowerneck -9.13814 -9.60089 -6.87681
upperneck 7.56155 -11.898 -1.65003
head 4.49868 -6.16285 -0.199173
rclavicle 2.8625e-014 4.77083e-015
rhumerus 24.5313 -5.08276 -47.7206
rradius 18.8467
rwrist -5.61522
rhand -1.00133 14.4208
rfingers 7.12502
rthumb 24.6309 -14.0143
lclavicle 2.8625e-014 4.77083e-015
lhumerus -28.3215 -10.3962 102.05
lradius 60.7349
lwrist 12.2073
lhand -3.68295 39.3434
lfingers 7.12502
lthumb 22.0584 68.1053
rfemur -37.1208 3.30289 12.1883
rtibia 35.1999
rfoot -12.3587 1.18027
rtoes 17.4869
lfemur -27.5095 0.694598 -21.1312
ltibia 26.1039
lfoot -11.311 11.8993
ltoes 0.0225004
252
root 0.386896 17.5384 -38.319 13.7672 -12.7974 5.92919
lowerback 37.6858 -0.370658 9.94698
upperback 15.4227 3.58269 17.3039
thorax -2.36377 1.20895 12.2781
lowerneck -9.15029 -9.54651 -6.93888
upperneck 7.35297 -11.8255 -1.61282
head 4.43022 -6.12578 -0.163997
rclavicle -4.13472e-014 -7.07673e-014
rhumerus 23.7871 -5.69263 -47.6067
rradius 18.8114
rwrist -6.19784
rhand -1.34693 14.8259
rfingers 7.12502
rthumb 24.2996 -13.654
lclavicle -4.13472e-014 -7.07673e-014
lhumerus -28.3724 -10.5841 102.188
lradius 60.6899
lwrist 12.0295
lhand -3.94204 39.2064
lfingers 7.12502
lthumb 21.8096 67.9975
rfemur -36.8407 3.32774 12.2032
rtibia 35.1917
rfoot -12.4582 1.18292
rtoes 17.2982
lfemur -27.2408 0.791383 -21.1656
ltibia 26.0772
lfoot -11.3642 11.7363
ltoes 0.246407
253
root 0.376617 17.5348 -38.3054 13.4677 -12.8056 5.92226
lowerback 37.7902 -0.344072 9.96519
upperback 15.4252 3.63334 17.2313
thorax -2.39229 1.23679 12.1658
lowerneck -9.78295 -9.4929 -6.92729
upperneck 7.9946 -11.6811 -1.77526
head 4.27086 -6.07553 -0.247329
rclavicle -6.36111e-015 -4.85035e-014
rhumerus 22.9515 -4.97831 -46.9648
rradius 19.4638
rwrist -7.99828
rhand -1.36666 14.3178
rfingers 7.12502
rthumb 24.2807 -14.1646
lclavicle -6.36111e-015 -4.85035e-014
lhumerus -28.1382 -10.6548 102.081
lradius 60.5402
lwrist 12.2651
lhand -4.12696 38.9338
lfingers 7.12502
lthumb 21.632 67.7454
rfemur -36.4698 3.38313 12.2972
rtibia 35.2416
rfoot -12.5582 1.05776
rtoes 16.2425
lfemur -26.8424 0.840659 -21.1226
ltibia 26.0433
lfoot -11.4908 11.7878
ltoes -0.817491
254
root 0.369614 17.5418 -38.2916 13.429 -12.754 5.9419
lowerback 37.5604 -0.4274 9.99313
upperback 15.2055 3.53461 16.9943
thorax -2.51395 1.20842 11.9078
lowerneck -8.97213 -9.32379 -7.08342
upperneck 6.95645 -11.5455 -1.42567
head 4.2669 -5.97817 -0.0328424
rclavicle -4.77083e-014 2.94201e-014
rhumerus 22.3492 -4.92982 -47.3449
rradius 19.5466
rwrist -8.20841
rhand -2.03901 14.3008
rfingers 7.12502
rthumb 23.636 -14.2663
lclavicle -4.77083e-014 2.94201e-014
lhumerus -28.6267 -10.4685 101.871
lradius 60.432
lwrist 12.0802
lhand -4.37217 38.4177
lfingers 7.12502
lthumb 21.3965 67.2563
rfemur -36.3522 3.52113 12.2198
rtibia 35.2574
rfoot -12.575 1.01121
rtoes 16.8276
lfemur -26.7285 0.883873 -21.1521
ltibia 26.0115
lfoot -11.365 11.6796
ltoes -0.856914
255
root 0.361859 17.5342 -38.2825 13.323 -12.609 5.96829
lowerback 37.3736 -0.305951 9.81632
upperback 15.1355 3.62879 17.1314
thorax -2.58428 1.25167 12.1189
lowerneck -9.36437 -9.22093 -7.12045
upperneck 7.0324 -11.3437 -1.77399
head 4.34465 -5.90124 -0.148907
rclavicle -1.04958e-013 -1.51076e-014
rhumerus 21.5221 -4.16873 -46.5556
rradius 19.823
rwrist -9.0382
rhand -3.06935 14.527
rfingers 7.12502
rthumb 22.6474 -14.1643
lclavicle -1.04958e-013 -1.51076e-014
lhumerus -28.7753 -10.4115 102.092
lradius 60.457
lwrist 11.9115
lhand -4.51316 38.2132
lfingers 7.12502
lthumb 21.2611 67.0671
rfemur -36.215 3.31333 12.3349
rtibia 35.3281
rfoot -12.7881 0.906221
rtoes 16.0078
lfemur -26.5828 0.968282 -21.1692
ltibia 25.9786
lfoot -11.4649 11.4754
ltoes -2.41755
256
root 0.356299 17.5369 -38.2678 13.1723 -12.4786 5.96139
lowerback 37.3306 -0.263912 10.0651
upperback 15.0087 3.77404 17.0024
thorax -2.68697 1.3411 11.7801
lowerneck -10.0802 -9.22469 -6.54719
upperneck 7.75735 -11.3119 -2.30356
head 4.18482 -5.9127 -0.438052
rclavicle 6.36111e-015 -1.15295e-013
rhumerus 20.9013 -4.46514 -46.56
rradius 19.5595
rwrist -8.70903
rhand -4.34766 14.3164
rfingers 7.12502
rthumb 21.4201 -14.5195
lclavicle 6.36111e-015 -1.15295e-013
lhumerus -28.7865 -10.6891 102.039
lradius 60.4362
lwrist 11.9645
lhand -4.28541 38.0716
lfingers 7.12502
lthumb 21.4799 66.9007
rfemur -35.9765 3.35325 12.3175
rtibia 35.3498
rfoot -12.8436 0.968428
rtoes 16.0604
lfemur -26.3334 0.942213 -21.1485
ltibia 25.9591
lfoot -11.4218 11.4313
ltoes -0.872098
257
root 0.350907 17.5381 -38.2545 12.9547 -12.4344 5.91881
lowerback 37.5246 -0.291301 10.089
upperback 14.7733 3.83143 16.9124
thorax -3.01101 1.37221 11.6382
lowerneck -10.1895 -9.01097 -6.73893
upperneck 7.79899 -10.9963 -2.16242
head 4.22883 -5.75624 -0.351764
rclavicle 6.36111e-015 -1.24837e-013
rhumerus 20.2226 -4.72841 -46.9176
rradius 19.2739
rwrist -7.47604
rhand -5.36812 14.801
rfingers 7.12502
rthumb 20.4397 -14.1432
lclavicle 6.36111e-015 -1.24837e-013
lhumerus -29.13 -10.5246 101.936
lradius 60.5379
lwrist 11.9232
lhand -4.06115 38.3052
lfingers 7.12502
lthumb 21.6952 67.1095
rfemur -35.6978 3.31984 12.4507
rtibia 35.4173
rfoot -13.0066 0.81697
rtoes 16.4525
lfemur -26.0322 1.14627 -21.1353
ltibia 25.955
lfoot -11.4903 11.2273
ltoes -2.37498
258
root 0.340178 17.5373 -38.2348 12.6833 -12.2024 5.89509
lowerback 37.4188 -0.31462 10.2508
upperback 14.6878 3.85768 16.8508
thorax -3.04686 1.39871 11.4701
lowerneck -9.75251 -8.91765 -6.59865
upperneck 6.63358 -10.9506 -2.24682
head 4.19574 -5.7146 -0.36213
rclavicle -1.90833e-014 -8.11041e-014
rhumerus 19.3864 -4.39 -46.6274
rradius 19.4097
rwrist -8.03608
rhand -6.9853 14.2062
rfingers 7.12502
rthumb 18.885 -14.897
lclavicle -1.90833e-014 -8.11041e-014
lhumerus -29.1773 -10.8041 101.909
lradius 60.3698
lwrist 11.8826
lhand -4.09989 38.4963
lfingers 7.12502
lthumb 21.658 67.305
rfemur -35.2575 3.17211 12.5903
rtibia 35.4216
rfoot -13.1981 0.874445
rtoes 15.8147
lfemur -25.6672 1.01928 -21.0335
ltibia 25.988
lfoot -11.5033 11.1821
ltoes -1.628
259
root 0.332176 17.539 -38.2154 12.6097 -12.2267 5.84513
lowerback 37.0899 -0.151323 10.1874
upperback 14.6581 3.98855 16.8782
thorax -2.99933 1.4686 11.4806
lowerneck -10.534 -8.81313 -6.36231
upperneck 7.48092 -10.7097 -2.88938
head 4.12021 -5.64527 -0.608277
rclavicle -5.725e-014 -7.95139e-015
rhumerus 18.4615 -3.56156 -45.9131
rradius 19.7389
rwrist -9.14667
rhand -7.39398 14.2844
rfingers 7.12502
rthumb 18.4919 -14.8567
lclavicle -5.725e-014 -7.95139e-015
lhumerus -29.2851 -11.0599 102.078
lradius 60.2692
lwrist 11.8753
lhand -4.42882 38.8078
lfingers 7.12502
lthumb 21.3421 67.6525
rfemur -35.1134 3.02264 12.7266
rtibia 35.4529
rfoot -13.2318 0.955748
rtoes 15.2595
lfemur -25.5725 1.11642 -20.9825
ltibia 26.0513
lfoot -11.522 11.1129
ltoes -3.34534
260
root 0.32315 17.5362 -38.1996 12.4918 -12.118 5.82907
lowerback 37.1299 -0.277614 10.3095
upperback 14.4214 3.91467 16.6064
thorax -3.21676 1.44764 11.1297
lowerneck -10.3602 -8.64985 -6.42968
upperneck 6.67604 -10.5399 -2.54293
head 4.29307 -5.52707 -0.488287
rclavicle 2.54444e-014 6.67916e-014
rhumerus 17.8851 -4.21826 -46.6648
rradius 19.4278
rwrist -8.18711
rhand -8.75197 13.8535
rfingers 7.12502
rthumb 17.1852 -15.4065
lclavicle 2.54444e-014 6.67916e-014
lhumerus -29.493 -11.2031 101.619
lradius 60.1914
lwrist 12.3775
lhand -4.50416 38.5781
lfingers 7.12502
lthumb 21.2698 67.4311
rfemur -34.9009 2.83085 12.8514
rtibia 35.4579
rfoot -13.207 1.15786
rtoes 13.5924
lfemur -25.4167 1.25452 -20.9763
ltibia 26.1317
lfoot -11.6862 10.9831
ltoes -2.25001
261
root 0.312905 17.5401 -38.1852 12.4225 -12.0187 5.84025
lowerback 36.6408 -0.117468 10.0489
upperback 14.4622 3.94983 16.7414
thorax -3.05944 1.4666 11.4033
lowerneck -10.7517 -8.55917 -6.28652
upperneck 6.61669 -10.3715 -3.0828
head 4.30273 -5.47172 -0.694158
rclavicle -3.49861e-014 4.45278e-014
rhumerus 17.0759 -3.96352 -46.2007
rradius 19.7508
rwrist -8.42443
rhand -9.48804 14.356
rfingers 7.12502
rthumb 16.4766 -14.9643
lclavicle -3.49861e-014 4.45278e-014
lhumerus -29.5389 -11.1339 101.828
lradius 60.0563
lwrist 12.2084
lhand -4.4076 38.3407
lfingers 7.12502
lthumb 21.3625 67.1831
rfemur -34.7634 2.69045 12.9318
rtibia 35.5019
rfoot -13.3346 1.05889
rtoes 13.8797
lfemur -25.3392 1.49262 -21.0143
ltibia 26.22
lfoot -11.6303 10.6744
ltoes -3.19661
262
root 0.30569 17.5376 -38.166 12.3646 -12.068 5.81847
lowerback 36.3856 0.00639374 10.0311
upperback 14.3361 4.07147 16.6357
thorax -3.11793 1.53664 11.2411
lowerneck -10.8907 -8.36747 -6.36802
upperneck 6.32528 -10.111 -2.94429
head 4.23438 -5.33452 -0.610887
rclavicle 1.59028e-014 2.2741e-013
rhumerus 16.6512 -5.46812 -46.8651
rradius 19.0132
rwrist -7.3507
rhand -9.64203 15.0636
rfingers 7.12502
rthumb 16.3283 -14.269
lclavicle 1.59028e-014 2.2741e-013
lhumerus -29.7317 -11.2978 101.812
lradius 59.8346
lwrist 11.8892
lhand -4.35344 38.5541
lfingers 7.12502
lthumb 21.4145 67.3906
rfemur -34.6691 2.6761 12.9823
rtibia 35.5504
rfoot -13.4785 1.17342
rtoes 14.2815
lfemur -25.221 1.51622 -20.9793
ltibia 26.2974
lfoot -11.7083 10.8454
ltoes -3.11308
263
root 0.292774 17.5338 -38.1468 12.1796 -11.8921 5.83199
lowerback 36.3612 -0.100756 10.1159
upperback 14.1498 3.98948 16.3891
thorax -3.26356 1.51158 10.9425
lowerneck -11.5233 -8.12414 -5.45859
upperneck 6.63704 -9.77916 -3.97416
head 4.35304 -5.21156 -1.11869
rclavicle -7.95139e-014 -9.85972e-014
rhumerus 15.8087 -5.73971 -47.304
rradius 19.2201
rwrist -7.2439
rhand -10.1633 15.0555
rfingers 7.12502
rthumb 15.8264 -14.3176
lclavicle -7.95139e-014 -9.85972e-014
lhumerus -30.0728 -11.5281 101.359
lradius 59.8373
lwrist 12.2498
lhand -3.86862 38.4194
lfingers 7.12502
lthumb 21.8801 67.2022
rfemur -34.3565 2.51782 13.0797
rtibia 35.5941
rfoot -13.4572 1.03309
rtoes 14.1159
lfemur -24.971 1.46389 -20.9386
ltibia 26.3604
lfoot -11.8514 10.6344
ltoes -2.9396
264
root 0.284366 17.5303 -38.128 12.1942 -11.977 5.75585
lowerback 35.9297 -0.0539925 9.85278
upperback 14.1513 3.88752 16.3759
thorax -3.12779 1.46431 11.1011
lowerneck -11.2767 -7.94217 -6.13418
upperneck 6.01325 -9.50862 -3.5648
head 4.13856 -5.06193 -0.813886
rclavicle 8.26944e-014 -1.74931e-014
rhumerus 15.1768 -4.4154 -46.8239
rradius 19.6588
rwrist -8.75876
rhand -10.2717 15.6222
rfingers 7.12502
rthumb 15.722 -13.7592
lclavicle 8.26944e-014 -1.74931e-014
lhumerus -30.1886 -10.8887 101.426
lradius 59.5663
lwrist 11.7702
lhand -4.14388 38.1396
lfingers 7.12502
lthumb 21.6158 66.9531
rfemur -34.3453 2.25384 13.2694
rtibia 35.6456
rfoot -13.6056 1.46677
rtoes 13.1015
lfemur -24.9794 1.65747 -20.9254
ltibia 26.3934
lfoot -11.5266 10.937
ltoes -5.7557
